<svg width="83" height="88" viewBox="0 0 83 88" fill="none" xmlns="http://www.w3.org/2000/svg">
<path fill-rule="evenodd" clip-rule="evenodd" d="M82.4849 45.3717C83.1848 43.7724 82.8578 41.8123 81.5575 40.5709L64.9325 24.7C63.3357 23.1756 60.8757 23.3123 59.4379 25.0053C58.0001 26.6983 58.129 29.3065 59.7259 30.8309L73.2036 43.6974L59.6448 56.6412C58.048 58.1656 57.9191 60.7739 59.3568 62.4669C60.7946 64.1599 63.2546 64.2966 64.8515 62.7722L81.4764 46.9012C81.9338 46.4647 82.2707 45.9392 82.4849 45.3717V45.3717ZM9.64121 43.6609L23.119 30.7945C24.7158 29.2701 24.8447 26.6618 23.4069 24.9688C21.9691 23.2758 19.5091 23.1391 17.9123 24.6635L1.28732 40.5345C-0.0130306 41.7758 -0.339952 43.736 0.359921 45.3353C0.57412 45.9027 0.911046 46.4282 1.36838 46.8648L17.9933 62.7357C19.5902 64.2601 22.0502 64.1234 23.488 62.4304C24.9258 60.7374 24.7968 58.1292 23.2 56.6048L9.64121 43.6609ZM52.5633 11.2499C54.5825 12.0291 55.6235 14.3962 54.8886 16.537L35.2612 73.7114C34.5263 75.8522 32.2937 76.956 30.2746 76.1768C28.2554 75.3976 27.2143 73.0305 27.9492 70.8897L47.5767 13.7153C48.3116 11.5745 50.5442 10.4707 52.5633 11.2499Z" fill="white"/>
</svg>
